<svg xmlns="http://www.w3.org/2000/svg" width="48" height="48" viewBox="0 0 48 48"><defs><style>.a,.b{fill:none;}.b{stroke:#ced2d4;stroke-linecap:round;stroke-linejoin:round;stroke-width:3px;}</style></defs><path class="a" d="M0,0H48V48H0Z"/><path class="b" d="M14,3v8a2,2,0,0,0,2,2h8" transform="translate(14 3)"/><path class="b" d="M29,39H9a4,4,0,0,1-4-4V7A4,4,0,0,1,9,3H23L33,13V35A4,4,0,0,1,29,39Z" transform="translate(5 3)"/><line class="b" x2="1.318" transform="translate(18.359 18.591)"/><line class="b" x2="11.862" transform="translate(18.359 26.499)"/><line class="b" x2="11.862" transform="translate(18.359 34.407)"/></svg>