<svg xmlns="http://www.w3.org/2000/svg" width="170.496" height="132.375" viewBox="0 0 170.496 132.375"><defs><style>.a{fill:#6baa7a;}.b{fill:#09212e;font-size:21px;font-family:SofiaPro-SemiBold, Sofia Pro;font-weight:600;}.c{fill:none;stroke:#09212e;stroke-miterlimit:10;}</style></defs><g transform="translate(-1427.624 -380.468)"><path class="a" d="M96.043,64.46a38.461,38.461,0,1,0-38.461,38.461A38.461,38.461,0,0,0,96.043,64.46" transform="translate(1429.584 363.793)"/><path class="a" d="M135.66,14.769a14.77,14.77,0,1,0-14.77,14.77,14.77,14.77,0,0,0,14.77-14.77" transform="translate(1462.461 466.461)"/><text class="b" transform="matrix(0.817, -0.057, 0.178, 0.972, 1491.411, 431.354)"><tspan x="-18.186" y="0">&lt;/&gt;</tspan></text><path class="c" d="M97.548,39.445c-30.61,2.6-79.609,10.91-82.8,11.617-6.057,1.344-1.811,3.007,11.173,17.743,10.931,12.406-3.915,14.131,103.456-12.033,8.7-2.119.467-4.738-16.787-14.292C109.9,40.988,106.069,38.719,97.548,39.445Z" transform="translate(1435.926 408.14)"/><path class="c" d="M51.212,48.662a.357.357,0,0,1-.279-.049,7.41,7.41,0,0,1-1.943-2.091A.37.37,0,0,1,49.251,46c6.565-1.285,6.032-1.252,6.976-.291C57.906,47.415,58.026,47.1,51.212,48.662Z" transform="translate(1463.293 412.368)"/><path class="c" d="M53.473,45.42a.381.381,0,0,1,.258-.228c6.154-1.492,5.849-1.217,7.434.7a.386.386,0,0,1,.07.343.37.37,0,0,1-.249.246c-1.393.428-.442.246-6.039,1.121a.368.368,0,0,1-.378-.181,12.865,12.865,0,0,0-1.054-1.658A.37.37,0,0,1,53.473,45.42Z" transform="translate(1466.627 411.796)"/><path class="c" d="M47.335,49.933a.364.364,0,0,1-.193,0,.684.684,0,0,1-.326-.125c-3.533-4.03-2.936-2.368,2.973-3.96,1.242-.333,1.6.606,2.206,1.184C53.611,48.578,53.694,48.242,47.335,49.933Z" transform="translate(1460.091 412.938)"/><path class="c" d="M49.217,49.1a.366.366,0,0,1,.073.326.371.371,0,0,1-.221.251c-.662.263-2.466.561-6.441,1.35a.363.363,0,0,1-.272-.052,2.307,2.307,0,0,1-.542-.411c-2.758-3.267-3.741-2.973,4.432-4.044C47,46.421,47.843,47.428,49.217,49.1Z" transform="translate(1456.525 413.482)"/><path class="c" d="M44.409,49.978a.368.368,0,0,1-.078.533c-1.013.705-5.195,1.477-6.161,1.64a.367.367,0,0,1-.3-.084c-.808-.69-3.432-3.634-2.673-3.77C42.929,46.9,41.642,46.465,44.409,49.978Z" transform="translate(1452.991 414.043)"/><path class="c" d="M33.875,53.225a.36.36,0,0,1-.3-.059,1.664,1.664,0,0,1-.294-.251c-3.739-4.211-4.651-3.451,3.4-4.845a1.055,1.055,0,0,1,.817.261C41.283,52.532,41.574,51.552,33.875,53.225Z" transform="translate(1449.623 414.632)"/><path class="c" d="M35.849,52.319a.366.366,0,0,1-.141.576c-.766.317-2.863.667-6.607,1.475a.387.387,0,0,1-.242-.03,1.151,1.151,0,0,1-.345-.221c-4.249-4.569-4.672-3.542,3.9-5.224C32.97,48.786,33.218,49.129,35.849,52.319Z" transform="translate(1445.954 415.237)"/><path class="c" d="M34.526,51.59c.606-.125.94.517,3.164,2.76.754.756.263.629-6.8,2a.359.359,0,0,1-.226-.026.867.867,0,0,1-.273-.167C27.162,52.623,26.3,53.311,34.526,51.59Z" transform="translate(1447.813 417.236)"/><path class="c" d="M38.941,50.613a.363.363,0,0,1,.341.1c3.681,3.842,4.2,3.042-3.457,4.536a1.006,1.006,0,0,1-.745-.319C31.577,51.391,31.558,52.227,38.941,50.613Z" transform="translate(1451.316 416.517)"/><path class="c" d="M37.341,51.735c-.78-.836-.139-.7,6.255-2.13a.367.367,0,0,1,.273.049,2.013,2.013,0,0,1,.456.336c3.183,3.373,3.815,2.638-3.932,4.39C39.826,54.507,39.814,54.394,37.341,51.735Z" transform="translate(1454.489 415.771)"/><path class="c" d="M46.7,48.992c2.38-.712,2.814.442,4.242,2.279a.364.364,0,0,1,.061.336.377.377,0,0,1-.242.242c-1.278.4-.313.186-6.2,1.369a.353.353,0,0,1-.258-.045,2.3,2.3,0,0,1-.587-.421C40.226,48.868,41.557,50.538,46.7,48.992Z" transform="translate(1457.969 415.163)"/><path class="c" d="M52.147,47.648c.42-.108,2.8,2.671,3.084,2.993.5.564-.953.7-6.095,1.736a.367.367,0,0,1-.216-.021.955.955,0,0,1-.378-.214C45.565,48.73,44.856,49.51,52.147,47.648Z" transform="translate(1461.412 414.323)"/><path class="c" d="M50.676,48.454c-.43-.562.54-.6,6-1.78a.369.369,0,0,1,.326.084c5.391,4.836,2.523,3.11-1.559,4.512C53.048,52.091,52.437,50.757,50.676,48.454Z" transform="translate(1464.504 413.596)"/><path class="c" d="M55.055,47.524a.362.362,0,0,1-.077-.326.367.367,0,0,1,.214-.253,41.435,41.435,0,0,1,5.564-1.038c.561-.089.663.044,3.248,2.849a.368.368,0,0,1-.127.59,55.776,55.776,0,0,1-5.6,1.233A.368.368,0,0,1,58,50.521C57.492,50.172,57.3,50.178,55.055,47.524Z" transform="translate(1467.752 413.021)"/><path class="c" d="M65.3,45.035c.331-.051.777.284,1.09.54,3.9,3.178,3.934,2.358-3.932,4.094a.367.367,0,0,1-.32-.078C57.652,45.767,58.538,46.089,65.3,45.035Z" transform="translate(1471.013 412.384)"/><path class="c" d="M65.485,45.6c-.813.256-.327.15-5.808,1.149a.37.37,0,0,1-.237-.033,1.335,1.335,0,0,1-.277-.183c-2.377-2.231-1.484-2.124-.306-2.344,5.13-.956,4.886-1.17,6.781.8a.366.366,0,0,1-.153.609Z" transform="translate(1469.755 411.232)"/><path class="c" d="M58.169,45.19a.368.368,0,0,1-.207-.026A.789.789,0,0,1,57.7,45c-2.619-2.912-3.215-2.4,3.631-3.349.569-.077.59.047,2.84,2.118C64.7,44.257,62.169,44.5,58.169,45.19Z" transform="translate(1468.42 409.866)"/><path class="c" d="M54.161,46.116c-.71.084-2.292-1.933-2.737-2.5s1.515-.717,6-1.435a.371.371,0,0,1,.306.091C60.7,44.937,61.858,45.185,54.161,46.116Z" transform="translate(1465.079 410.271)"/><path class="c" d="M55.984,45.391c.589.585-1.407.764-6.42,1.569a.348.348,0,0,1-.12,0,.485.485,0,0,1-.233-.082c-3.2-3.532-3.871-2.938,3.737-3.976C53.445,42.833,54.359,43.8,55.984,45.391Z" transform="translate(1461.804 410.804)"/><path class="c" d="M46.432,47.752c-1.39.359-3.143-1.839-3.808-2.845a.371.371,0,0,1,.239-.564c.435-.085,1.619-.24,5.552-.789a.365.365,0,0,1,.174.019,1.4,1.4,0,0,1,.543.291C52.95,47.788,52.06,46.285,46.432,47.752Z" transform="translate(1458.557 411.287)"/><path class="c" d="M47.5,47.047c.526.561-1.442.69-6.805,1.478a.39.39,0,0,1-.256-.056A13.03,13.03,0,0,1,37.8,45.823a.369.369,0,0,1,.2-.576c1.5-.43,5.484-.97,6.02-1.043C44.747,44.1,45.2,44.583,47.5,47.047Z" transform="translate(1454.97 411.762)"/><path class="c" d="M36.474,49.295c-1.09.143-2-1.17-3.22-2.5-.77-.846-.467-.639,6.219-1.851a.332.332,0,0,1,.216.026,1.468,1.468,0,0,1,.488.272C43.441,48.515,44.326,48.262,36.474,49.295Z" transform="translate(1451.435 412.313)"/><path class="c" d="M37.9,48.434c.355.4.211.576-.256.658-6.011,1.08-6.278,1.31-7,.66-2.4-2.187-2.919-2.783-1.691-3.1l5.839-.791.035,0C35.806,45.825,36.056,46.379,37.9,48.434Z" transform="translate(1447.991 412.996)"/><path class="c" d="M33.327,49.535c.43.488-2.079.751-6.873,1.755a.36.36,0,0,1-.233-.03,1.117,1.117,0,0,1-.4-.247c-3.446-4.36-2.915-2.795,2.993-4.244C30.7,46.307,31.255,47.178,33.327,49.535Z" transform="translate(1444.56 413.585)"/><path class="c" d="M28.065,50.487c.427.568-5.35,2.163-6.255,1.254-3.622-3.631-3.676-3.262,3.46-4.268a.363.363,0,0,1,.233.044C25.942,47.77,25.852,47.5,28.065,50.487Z" transform="translate(1441.385 414.192)"/><path class="c" d="M27,49.851c.517-.108,1.332.994,3.438,3.478a.368.368,0,0,1,.077.331.377.377,0,0,1-.223.253,54.473,54.473,0,0,1-5.5,1.078.364.364,0,0,1-.313-.091C19.932,50.722,20.777,51.143,27,49.851Z" transform="translate(1443.015 415.953)"/><path class="c" d="M23.953,53.772a.358.358,0,0,1,.246-.19c6.283-1.411,5.2-1.675,8.256,1.774a.371.371,0,0,1-.136.587c-.676.275-2.394.589-5.574,1.327a.368.368,0,0,1-.341-.1,14.178,14.178,0,0,1-2.468-3.094A.374.374,0,0,1,23.953,53.772Z" transform="translate(1444.727 417.998)"/><path class="c" d="M31.654,54.886a.37.37,0,0,1,.306.063,24.624,24.624,0,0,1,2.922,3.168c.468.571-1.445.946-5.36,1.82-.566.129-.933-.38-3.54-3.326C25.569,56.145,27.4,55.895,31.654,54.886Z" transform="translate(1446.221 419.684)"/><path class="c" d="M35.563,54.1c2.337-.906,2.819,1.287,4.3,2.44,1.155.9.559.815-6.48,2.529a.276.276,0,0,1-.2-.028,1.534,1.534,0,0,1-.414-.272C27.8,53.481,30.166,56.187,35.563,54.1Z" transform="translate(1449.276 418.947)"/><path class="c" d="M35.006,54.853c-.738-.771-.235-.636,6.057-2a.364.364,0,0,1,.258.038,1.189,1.189,0,0,1,.317.207c3.176,3.671,4.091,3.244-3.321,4.639C37.855,57.829,35.332,55.187,35.006,54.853Z" transform="translate(1452.762 418.18)"/><path class="c" d="M45.492,51.886a.61.61,0,0,1,.5.087c4.115,4.491,4.465,3.295-3.495,4.949a.368.368,0,0,1-.312-.078C37.317,52.745,38.644,53.445,45.492,51.886Z" transform="translate(1456.117 417.455)"/><path class="c" d="M43.86,52.848c-.547-.6.834-.73,6.335-1.808a.263.263,0,0,0,.158-.094l.005,0a.362.362,0,0,1,.306-.131.368.368,0,0,1,.286.171c1.508,2.37,3.4,3.511,2.516,3.692C45.546,56.294,47.515,56.831,43.86,52.848Z" transform="translate(1459.436 416.67)"/><path class="c" d="M48.5,51.72a.362.362,0,0,1-.064-.348.373.373,0,0,1,.261-.242c1.384-.347,4.585-.919,5.3-1.036a1.643,1.643,0,0,1,1.132.392c4.143,3.349,3.674,2.805-3.028,4.392a.365.365,0,0,1-.3-.056A18.612,18.612,0,0,1,48.5,51.72Z" transform="translate(1462.896 416.131)"/><path class="c" d="M52.9,50.947c-.688-.669-.495-.479,6.037-1.842a.372.372,0,0,1,.252.037c.942.515,3.474,3.147,2.7,3.345C54.8,54.318,56.749,54.7,52.9,50.947Z" transform="translate(1466.021 415.398)"/><path class="c" d="M57.28,49.982a.373.373,0,0,1,.176-.575,39.855,39.855,0,0,1,5.579-1.137c.669-.075,2.666,1.943,3.112,2.427.549.6-.252.655-6.023,2.01a.375.375,0,0,1-.331-.082A21.728,21.728,0,0,1,57.28,49.982Z" transform="translate(1469.411 414.784)"/><path class="c" d="M61.685,49.206a.373.373,0,0,1-.1-.32.363.363,0,0,1,.2-.27A33.286,33.286,0,0,1,68,47.243c.77-.1,2.579,1.846,3.145,2.361.883.8.178.73-6.6,2.01a.381.381,0,0,1-.268-.049A25.41,25.41,0,0,1,61.685,49.206Z" transform="translate(1472.653 414.022)"/><path class="c" d="M71.233,46.273c1.081-.3,3.274,1.679,4.165,2.429.566.47-1,.7-6.027,1.922a.367.367,0,0,1-.327-.077C64.448,46.679,65.566,47.833,71.233,46.273Z" transform="translate(1476.073 413.283)"/><path class="c" d="M67.123,48.384a.372.372,0,0,1-.32-.075,29.023,29.023,0,0,1-2.91-2.593.372.372,0,0,1,.2-.606,42.7,42.7,0,0,1,4.829-.742c.9-.063,3.044,1.748,3.723,2.3C73.2,47.125,71.384,47.383,67.123,48.384Z" transform="translate(1474.302 411.893)"/><path class="c" d="M69.18,44.917c-4.846.879-5.1,1.423-7.006-.773a.359.359,0,0,1-.073-.354.367.367,0,0,1,.261-.247c.367-.091,1.3-.242,4.7-.825a.358.358,0,0,1,.266.057,11.354,11.354,0,0,1,2.029,1.5.376.376,0,0,1,.11.376A.369.369,0,0,1,69.18,44.917Z" transform="translate(1473.027 410.665)"/><path class="c" d="M67.587,43.255c-5.12.987-5.146,1.7-7.359-1.071A.367.367,0,0,1,60.4,41.6l4.092-.451C65.9,41,68.192,43.142,67.587,43.255Z" transform="translate(1471.593 409.503)"/><path class="c" d="M58.638,40.447a.368.368,0,0,1,.306-.249,43.832,43.832,0,0,1,4.533-.347,2.412,2.412,0,0,1,1.412.836.356.356,0,0,1,.05.388.361.361,0,0,1-.327.216c-1.186.026-4.723.653-5.881-.458A.376.376,0,0,1,58.638,40.447Z" transform="translate(1470.46 408.535)"/><path class="c" d="M54.718,40.753a.325.325,0,0,1,.068-.017c6.461-.865,4.845-.761,6.555.738a.366.366,0,0,1,.117.36.373.373,0,0,1-.266.272A32.015,32.015,0,0,1,56,42.668c-.484-.009-.956-.784-1.435-1.372a.344.344,0,0,1,.155-.543Z" transform="translate(1467.396 408.795)"/><path class="c" d="M50.057,41.373c7.474-.893,6-.949,7.589.676a.366.366,0,0,1-.186.618c-.524.111-1.872.294-5.717.909a.384.384,0,0,1-.336-.12C50.123,42.03,49.475,41.441,50.057,41.373Z" transform="translate(1463.952 409.213)"/><path class="c" d="M45.735,42.129a51.436,51.436,0,0,1,5.51-.925.367.367,0,0,1,.324.106c.481.507,1.027,1.076,1.583,1.658a.382.382,0,0,1,.087.359.372.372,0,0,1-.268.256c-.465.113-1.71.259-5.679.8-.486.068-1.243-1.013-1.733-1.7a.382.382,0,0,1-.05-.322A.369.369,0,0,1,45.735,42.129Z" transform="translate(1460.729 409.544)"/><path class="c" d="M45.721,41.941c1.766-.437,2.706,1.1,3.295,1.646.657.606.557.421-6.29,1.461a.381.381,0,0,1-.343-.136C39.5,41.37,40.838,43.144,45.721,41.941Z" transform="translate(1457.305 410.036)"/><path class="c" d="M36.38,43.3l.023,0c7.229-1.047,6.3-1.5,8.3.872a.365.365,0,0,1,.068.345.358.358,0,0,1-.246.247c-1.125.327-.273.178-6.4,1.054a.366.366,0,0,1-.3-.087,8.724,8.724,0,0,1-1.694-1.865.371.371,0,0,1-.028-.347A.375.375,0,0,1,36.38,43.3Z" transform="translate(1453.745 410.465)"/><path class="c" d="M31.682,44.106c6.367-1.12,6.313-1.525,8.176.874a.364.364,0,0,1,.059.343.374.374,0,0,1-.254.24c-.78.211-.293.1-5.975,1.17a.365.365,0,0,1-.312-.087C32.636,45.989,30.8,44.26,31.682,44.106Z" transform="translate(1450.314 411.04)"/><path class="c" d="M32.876,43.907c.784-.071,1.942,1.177,2.6,1.964a.371.371,0,0,1,.07.355.377.377,0,0,1-.27.244c-.876.2-.3.091-6.426,1.172a.386.386,0,0,1-.265-.056,11.534,11.534,0,0,1-1.978-2.126C26.036,44.733,32.3,43.959,32.876,43.907Z" transform="translate(1446.701 411.55)"/><path class="c" d="M27.868,44.756c.643-.061,1.332.583,2.866,2.105.529.517-1.679.719-6.581,1.6a.369.369,0,0,1-.338-.115C21.209,45.445,20.522,45.475,27.868,44.756Z" transform="translate(1443.31 412.178)"/><path class="c" d="M23.112,45.481c1.33-.193,1.766.923,2.433,1.626,1.193,1.257,1.243.94-5.414,2.147a.352.352,0,0,1-.207-.024,2.241,2.241,0,0,1-.737-.414C16.073,45.673,16.465,46.464,23.112,45.481Z" transform="translate(1439.83 412.702)"/><path class="c" d="M12.756,48.055a.373.373,0,0,1,.059-.517c.97-.775,4.919-1.263,5.489-1.3,1.4-.1,1.6.418,3.366,2.184.759.759.131.632-5.7,1.44C14.372,50.08,14.91,50.789,12.756,48.055Z" transform="translate(1436.399 413.267)"/><path class="c" d="M18.652,53.68c-7.291-5.08-4.312-4.336,2.45-5.367.6-.094.778.042,3.542,3.053a.367.367,0,0,1-.078.566,48.028,48.028,0,0,1-5.6,1.8A.37.37,0,0,1,18.652,53.68Z" transform="translate(1437.688 414.804)"/><path class="c" d="M19.728,55.705c-.8-.477-3.108-2.953-2.384-3.19,6.84-2.2,5.83-2.713,8.925,1.475.414.562-.74.613-6.276,1.759A.361.361,0,0,1,19.728,55.705Z" transform="translate(1439.756 416.693)"/><path class="c" d="M22.382,58.2c-.517.091-.794-.3-3.114-2.769-.531-.562,1.72-1.008,5.9-2.144a.377.377,0,0,1,.211.005c.643.211.369-.212,3.248,3.305.468.566-2.177.864-6.241,1.6Z" transform="translate(1441.229 418.494)"/><path class="c" d="M24.206,61.1c-4.923-4.376-2.776-3.894,3.229-5.256.569-.127.827.228,3.754,3.33.531.561-1.186.735-6.654,2.01A.372.372,0,0,1,24.206,61.1Z" transform="translate(1442.926 420.386)"/><path class="c" d="M33.594,61.859c-3.556.8-7.047,1.922-9.856-1.487a.5.5,0,0,1,.118-.425c7.817-2.025,6.048-2.475,9.834,1.515A.474.474,0,0,1,33.594,61.859Z" transform="translate(1444.587 422.319)"/><path class="c" d="M32.044,62.3a.37.37,0,0,1-.244-.037,3.054,3.054,0,0,1-.74-.458c-3.683-3.582-4.192-2.879,2.441-4.352.634-.141.707-.08,3.8,3.054C38.17,61.376,37.217,61.317,32.044,62.3Z" transform="translate(1448.039 421.563)"/><path class="c" d="M73.113,55.889c-13.464,3.305-22.528,6.1-37.01,8.641a.385.385,0,0,1-.289-.071c-4.387-3.373-7.08-3.4,12.453-7.35,4.479-.9,10.051-2.253,17.113-3.624,6.424-1.25,4.3-2.191,7.981,1.717C73.79,55.657,73.56,55.777,73.113,55.889Z" transform="translate(1451.223 417.846)"/><path class="c" d="M58.532,56.061a.366.366,0,0,1-.3-.068,14.457,14.457,0,0,1-2.971-2.72.376.376,0,0,1-.054-.333.363.363,0,0,1,.237-.24c1.01-.333,3.248-.811,4.792-1.247a1.269,1.269,0,0,1,1.433.369C64.953,55.389,65.489,54.536,58.532,56.061Z" transform="translate(1467.917 417.09)"/><path class="c" d="M62.917,55.249c-.564.118-.859-.326-3.606-3.063-.524-.522,1.43-.764,6.116-1.848a.392.392,0,0,1,.219.016.964.964,0,0,1,.315.172C70.293,54.565,70.807,53.562,62.917,55.249Z" transform="translate(1470.91 416.313)"/><path class="c" d="M67.53,54.216c-.568.108-1.8-1.027-3.72-2.96-.573-.575.712-.712,6.657-1.983a.365.365,0,0,1,.3.068c1.036.784,2.584,2.17,3.451,2.95C74.8,52.8,68.1,54.11,67.53,54.216Z" transform="translate(1474.217 415.523)"/><path class="c" d="M72.354,53.142a.373.373,0,0,1-.31-.07c-4.794-3.734-5.12-3.115,2.316-4.885.569-.134,1.045.289,4.232,2.882C79.393,51.717,77.236,52.031,72.354,53.142Z" transform="translate(1477.849 414.709)"/><path class="c" d="M86.139,48.927c.69.7.226.629-8.686,3.272-.569.169-.693-.075-4.329-2.948-.587-.463,1.459-.775,9.207-2.4C83.639,46.578,85.23,48,86.139,48.927Z" transform="translate(1481.144 413.708)"/><path class="c" d="M83.163,46.942a.37.37,0,0,1,.117.362.36.36,0,0,1-.265.27c-.481.129-1.947.411-9.045,1.954a.364.364,0,0,1-.259-.042c-1.377-.787-3.9-2.677-3.169-2.818C78.667,45.083,79.987,44.149,83.163,46.942Z" transform="translate(1479.202 412.476)"/><path class="c" d="M76.3,43.409c.5.254,2.267,1.135,3.211,1.689a.371.371,0,0,1,.178.362.365.365,0,0,1-.258.308c-1.768.545-5.35,1.019-6.565,1.438-2.292.792-3.394-.984-4.808-2.1h0c-.562-.435,2.38-.759,8.016-1.733A.368.368,0,0,1,76.3,43.409Z" transform="translate(1477.405 411.152)"/><path class="c" d="M72.742,42.05a.36.36,0,0,1,.2.035,14.931,14.931,0,0,1,2.26,1.186.371.371,0,0,1-.1.686c-2.112.481-6.683,1.388-7.178,1a20.055,20.055,0,0,1-1.748-1.512.373.373,0,0,1,.211-.623C66.964,42.741,68.434,42.578,72.742,42.05Z" transform="translate(1475.992 410.173)"/><path class="c" d="M72.263,41.756a.368.368,0,0,1-.139.646,56.243,56.243,0,0,1-5.731.855c-.515.037-1.468-.82-2.1-1.451a.361.361,0,0,1-.092-.369.368.368,0,0,1,.284-.252C67.276,40.676,70.17,40.108,72.263,41.756Z" transform="translate(1474.585 409.146)"/><path class="c" d="M67.865,40.092a.368.368,0,0,1-.057.719c-.623.08-1.752.214-3.854.479a.37.37,0,0,1-.3-.094c-.258-.242-.55-.515-.846-.8a.368.368,0,0,1,.2-.63A14.113,14.113,0,0,1,67.865,40.092Z" transform="translate(1473.481 408.42)"/><path class="c" d="M158.416,65.767C147.524,74.7,70,98.353,63.2,99.193a17.862,17.862,0,0,1-6.689-.728c-9.05-2.273-43.81-36.432-48.719-44.82a35.188,35.188,0,0,1-.165-7.359.37.37,0,0,1,.643-.2c4.143,4.723,33.835,38.9,36.867,41.36,6.945,5.646,9.726,9.665,22.253,7.948,10.64-1.458,28.338-7.133,61.281-18.7,19.279-6.772,26.579-10.05,29.339-11.545a.374.374,0,0,1,.482.122A.368.368,0,0,1,158.416,65.767Z" transform="translate(1432.563 413.078)"/><path class="c" d="M109.55,38.838c54.02,23.11,57.487,29.25,41.722,34.734C109.948,87.961,87.237,96.72,72.5,99.55c-17.034,3.27-23.437-1.475-35.833-16.216-21.4-25.466-33.316-34.682-26.979-35.2,32.378-2.659,29.731-4.225,90.169-10.016l0,.024.007.016a.036.036,0,0,0,.019.007C101.785,37.959,105.236,36.994,109.55,38.838Z" transform="translate(1432.92 406.971)"/><path class="c" d="M79.991,2.071c10.225.272,15.375-.576,19.307,6.123,4.075,6.941,6.791,21.994,9.717,54.836a.366.366,0,0,1-.287.39c-5.635,1.252-85.588,10.149-90.166,10.534C11,74.593,13,75.848,11.5,69.02,10.343,63.768,8.06,51.594,5.9,34.739,1.406-.343-14.554-.451,79.991,2.071Z" transform="translate(1428.52 379.837)"/><path class="c" d="M3.3,3.874a.369.369,0,0,1,.585.444A11.917,11.917,0,0,0,2.26,12.625c.08.569,10.586,59.672,10,61.974-1.4,5.571-.409,8.286-1.571,8.1-1.8-.287-2.158-1.811-2.368-3.8C6.008,57.183.782,12.374.648,11.233l0-.045A11.149,11.149,0,0,1,3.3,3.874Z" transform="translate(1427.479 381.782)"/><path class="c" d="M16.787,64.969c1.708,2.165,4.745,2.873,10.076,2.695,6.609-.215,16.968-1.485,32.494-3.3,22.687-2.657,28.878-2.74,36.637-4.682,8.109-2.025,7.122-5.005,6.248-14.225-1.819-19.189-2.455-37.166-13.43-40.439C83.555,3.447,38.5,4.921,31.981,5.58,19.863,6.8,14.247,7.049,10.542,7.726c-7.654,1.406-2.406,7.968,4.524,52.621A9.778,9.778,0,0,0,16.787,64.969Z" transform="translate(1429.844 381.218)"/><path class="c" d="M78.838,55.379c-40.79,8.42-25.7,7.81-19.88,21.127A1.639,1.639,0,0,0,60.7,77.681l.03,0a21.756,21.756,0,0,0,3.326-.545c.568-.183,18.377-6.177,26.979-9.961a2.289,2.289,0,0,0,.495-3.986C81.269,54.709,82.939,54.538,78.838,55.379Z" transform="translate(1465.088 419.812)"/><path class="c" d="M75.969,71.346,65.576,75.059A21.557,21.557,0,0,1,61.17,76.28c-.954.124-1.419-.453-1.872-1.189-1.553-2.518-3.141-5.013-4.785-7.471-1.815-2.7-10.6-5.539,21.708-11.673,4.165-.791,5.092.1,6.051.864,2.955,2.363,5.149,4.077,6.57,5.393C93.684,66.692,89.531,66.509,75.969,71.346Z" transform="translate(1465.598 420.249)"/></g></svg>