<svg xmlns="http://www.w3.org/2000/svg" width="43.338" height="43.338" viewBox="0 0 43.338 43.338">
  <g id="Group_5066" data-name="Group 5066" transform="translate(-779 395)">
    <g id="Group_4850" data-name="Group 4850" transform="translate(779 -395)">
      <circle id="Ellipse_11" data-name="Ellipse 11" cx="21.669" cy="21.669" r="21.669" fill="#ffd70f"/>
      <circle id="Ellipse_12" data-name="Ellipse 12" cx="17.773" cy="17.773" r="17.773" transform="translate(3.896 3.896)" fill="#ffcd00"/>
    </g>
    <path id="Path_223" data-name="Path 223" d="M2325.266,6583.941a3.379,3.379,0,0,0-.072-.416l-8.44-.007a3.446,3.446,0,0,1,.25-.945,3.377,3.377,0,0,1,.752-1.111,3.335,3.335,0,0,1,1.1-.709,3.472,3.472,0,0,1,3.927.838l1.333-1.3a5.005,5.005,0,0,0-1.684-1.189,5.509,5.509,0,0,0-2.228-.43,5.569,5.569,0,0,0-2.107.4,5.27,5.27,0,0,0-1.719,1.118,5.378,5.378,0,0,0-1.161,1.7,5.141,5.141,0,0,0-.408,1.634h-.055a5.129,5.129,0,0,0-.409-1.634,5.361,5.361,0,0,0-1.161-1.7,5.265,5.265,0,0,0-1.72-1.118,5.864,5.864,0,0,0-4.335.029,5.005,5.005,0,0,0-1.684,1.189l1.333,1.3a3.644,3.644,0,0,1,3.927-.838,3.33,3.33,0,0,1,1.1.709,3.371,3.371,0,0,1,.753,1.111,3.419,3.419,0,0,1,.249.945l-8.439.007a3.333,3.333,0,0,0-.072.416,4.072,4.072,0,0,0-.029.487,5.694,5.694,0,0,0,.3,1.863,4.309,4.309,0,0,0,.946,1.562,4.756,4.756,0,0,0,1.648,1.133,5.654,5.654,0,0,0,2.193.4,5.552,5.552,0,0,0,2.106-.4,5.226,5.226,0,0,0,1.72-1.118,5.35,5.35,0,0,0,1.161-1.7,5,5,0,0,0,.317-1h.239a5.029,5.029,0,0,0,.316,1,5.367,5.367,0,0,0,1.161,1.7,5.231,5.231,0,0,0,1.719,1.118,5.559,5.559,0,0,0,2.107.4,5.652,5.652,0,0,0,2.192-.4,4.746,4.746,0,0,0,1.648-1.133,4.307,4.307,0,0,0,.947-1.562,5.7,5.7,0,0,0,.3-1.863A4.176,4.176,0,0,0,2325.266,6583.941Zm-12.7,1.541a3.324,3.324,0,0,1-.76,1.111,3.417,3.417,0,0,1-1.111.709,3.947,3.947,0,0,1-2.73.014,3.227,3.227,0,0,1-.967-.609,2.307,2.307,0,0,1-.495-.652,3.687,3.687,0,0,1-.323-.881h6.5A3.19,3.19,0,0,1,2312.564,6585.481Zm10.5.573a2.312,2.312,0,0,1-.495.652,3.223,3.223,0,0,1-.967.609,3.947,3.947,0,0,1-2.73-.014,3.421,3.421,0,0,1-1.111-.709,3.319,3.319,0,0,1-.759-1.111,3.128,3.128,0,0,1-.114-.309h6.5A3.708,3.708,0,0,1,2323.066,6586.055Z" transform="translate(-1514.111 -6957.358)" fill="#e79c23"/>
    <g id="Group_4851" data-name="Group 4851" transform="translate(783.626 -390.107)">
      <path id="Path_224" data-name="Path 224" d="M29.183,79.214a17.787,17.787,0,0,1-17-12.564,17.779,17.779,0,0,0,31.8-15.044A17.768,17.768,0,0,1,29.183,79.214Z" transform="translate(-12.185 -44.664)" fill="#fcbe11"/>
      <path id="Path_225" data-name="Path 225" d="M13.705,20.525a14.63,14.63,0,0,1-4.549-.72A14.505,14.505,0,0,1,2.07,14.738,14.193,14.193,0,0,1,0,10.853a14.588,14.588,0,0,0,13.048,8.092A14.412,14.412,0,0,0,27.531,4.638,14.124,14.124,0,0,0,26.753,0a14.189,14.189,0,0,1,.3,11.786,14.252,14.252,0,0,1-3.1,4.548,14.445,14.445,0,0,1-4.6,3.066A14.544,14.544,0,0,1,13.705,20.525Z" transform="translate(30.293 20.512) rotate(178)" fill="#ffdc50"/>
    </g>
  </g>
</svg>
