<svg xmlns="http://www.w3.org/2000/svg" width="48" height="48" viewBox="0 0 48 48"><defs><style>.a{fill:#f0f3f5;}.b,.c{fill:none;}.c{stroke:#0f2b3c;stroke-linecap:round;stroke-linejoin:round;stroke-width:2px;}</style></defs><g transform="translate(0 -0.175)"><rect class="a" width="48" height="48" rx="4" transform="translate(0 0.175)"/><g transform="translate(6 6.175)"><path class="b" d="M0,0H36.419V36.419H0Z"/><path class="c" d="M14,3V9.07a1.517,1.517,0,0,0,1.517,1.517h6.07" transform="translate(7.245 1.552)"/><path class="c" d="M23.21,30.314H8.035A3.035,3.035,0,0,1,5,27.28V6.035A3.035,3.035,0,0,1,8.035,3H18.657l7.587,7.587V27.28A3.035,3.035,0,0,1,23.21,30.314Z" transform="translate(2.587 1.552)"/><line class="c" x2="1" transform="translate(13.93 14.105)"/><line class="c" x2="9" transform="translate(13.93 20.105)"/><line class="c" x2="9" transform="translate(13.93 26.105)"/></g></g></svg>