<svg xmlns="http://www.w3.org/2000/svg" width="34.891" height="40.066" viewBox="0 0 34.891 40.066">
  <g id="noun-reminder-3408043" transform="translate(-80.399 -13.998)">
    <path id="Path_5179" data-name="Path 5179" d="M156.092,40.062l-1.265-.886a10.133,10.133,0,0,1-4.3-7.338L150.1,27.03a9.84,9.84,0,0,0-7.549-8.688V16.275a2.277,2.277,0,1,0-4.555,0v2.067a9.84,9.84,0,0,0-7.549,8.688l-.422,4.808a10,10,0,0,1-4.3,7.338l-1.265.886a2.962,2.962,0,0,0-1.265,2.446V44.28a1.243,1.243,0,0,0,1.265,1.265h31.631a1.243,1.243,0,0,0,1.265-1.265V42.508a2.961,2.961,0,0,0-1.265-2.446Z" transform="translate(-42.411 0)" fill="#f1a82c"/>
    <path id="Path_5180" data-name="Path 5180" d="M119.809,39.557h.169a1.919,1.919,0,0,0,1.9-1.729,13.8,13.8,0,0,1,4.007-8.519,1.909,1.909,0,1,0-2.7-2.7,17.555,17.555,0,0,0-5.1,10.881,1.923,1.923,0,0,0,1.729,2.067Z" transform="translate(-37.674 -11.136)" fill="#f1a82c"/>
    <path id="Path_5181" data-name="Path 5181" d="M474.947,38.082a1.886,1.886,0,0,0,1.9,1.729h.169a1.9,1.9,0,0,0,1.729-2.067,17.553,17.553,0,0,0-5.1-10.881,1.909,1.909,0,0,0-2.657,2.741,13.438,13.438,0,0,1,3.965,8.477Z" transform="translate(-363.458 -11.389)" fill="#f1a82c"/>
    <path id="Path_5182" data-name="Path 5182" d="M282.684,478.682a5.472,5.472,0,0,0,5.483-5.483H277.2a5.472,5.472,0,0,0,5.483,5.483Z" transform="translate(-184.817 -424.618)" fill="#f1a82c"/>
  </g>
</svg>
